# xmcd
#
# Track frame offsets:
#	150
#	16378
#	36755
#	52388
#	65235
#	78650
#	93515
#	105510
#	118038
#	136623
#	156703
#	166480
#	178865
#	193715
#
# Disc length: 2818
#
# Revision: 3
# Processed by: cddbd v1.5.1PL0 Copyright (c) Steve Scherf et al.
# Submitted via: VisiTrax 2.9.5.180 - For more info visit www.synapsa.com
# Normalized: r2:DSETVAR1
#
DISCID=cc0b000e
DTITLE=Various Artist - Mr Music Country 07-98
DYEAR=1998
DGENRE=Country
TTITLE0=Dean Miller - Ralph Emery - I Feel Bad
TTITLE1=Joe ELy - Queen Of The Heaven
TTITLE2=Kenny Chesney - Angel Loved The Devil
TTITLE3=Jim Lauderdale - Goodbye Song
TTITLE4=Lonestar - Keys To My Heart
TTITLE5=Erin Hay - Goodbye Ireland
TTITLE6=Benny Berry - I'll Get By
TTITLE7=Mark Chesnutt - Hello Honky Tonk
TTITLE8=David Lee Murphy - That's Behind Me
TTITLE9=Kelly Wolf - Threaten Dark Cloudes
TTITLE10=Derrick Mehaffey - I'm Gonna Get To You
TTITLE11=Jack Ingram - Ghost Of A Man
TTITLE12=Mavericks - The Writing On The Wall
TTITLE13=George Jones - Hundred Proof Memories
EXTD=
EXTT0=
EXTT1=
EXTT2=
EXTT3=
EXTT4=
EXTT5=
EXTT6=
EXTT7=
EXTT8=
EXTT9=
EXTT10=
EXTT11=
EXTT12=
EXTT13=
PLAYORDER=
